# xmcd
# 
# Track frame offsets:
#     182
#     28900
#     51440
#     74477
#     96755
#     118780
#     141342
#     160382
#     177827
#     198252
#     215162
#     234970
# 
# Disc length: 3362
# 
# Revision: 6
# Processed by: cddbd v1.5.2PL0 Copyright (c) Steve Scherf et al.
# Submitted via: fre:ac v1.0.17
# 
DISCID=b70d200c
DTITLE=Joe - All That I Am
DYEAR=1997
DGENRE=R&B
TTITLE0=All The Things (Your Man Won't Do)
TTITLE1=The Love Scene
TTITLE2=Don't Wanna Be A Player
TTITLE3=Good Girls
TTITLE4=How Soon
TTITLE5=Sanctified Girl (Can't Fight This Feeling)
TTITLE6=All That I Am
TTITLE7=No One Else Comes Close
TTITLE8=Come Around
TTITLE9=U Shoulda Told Me (U Had A Man)
TTITLE10=Love Don't Make No Sense
TTITLE11=No One Else Comes Close (Unplugged)
EXTD=YEAR: 1997
EXTT0=
EXTT1=
EXTT2=
EXTT3=
EXTT4=
EXTT5=
EXTT6=
EXTT7=
EXTT8=
EXTT9=
EXTT10=
EXTT11=
PLAYORDER=
